PathFileType   4   (X/Y/Z)
DataRate	CameraRate	NumFrames	NumMarkers	Units	OrigDataRate	OrigDataStartFrame	OrigNumFrames
120.0	120.0	7	37	mm	120.0	30	116
Frame#	Time	midhip	hip_r	hip_l	knee_r	knee_l	ankle_r	ankle_l	midasis	asis_r	asis_l	psis_r	psis_l	epicondLat_r	epicondLat_l	epicondMed_r	epicondMed_l	malleolusLat_r	malleolusLat_l	malleolusMedv_r	malleolusMedv_l	neck	subclavicle_r	subclavicle_l	sternalnotch	xyphoidprocess	thighwand_r	thighwand_l	upperleg1_r	upperleg1_l	upperleg2_r	upperleg2_l	shankwand_r	shankwand_l	lowerleg1_r	lowerleg1_l	toe_r	toe_l
 	 	X1	Y1	Z1	X2	Y2	Z2	X3	Y3	Z3	X4	Y4	Z4	X5	Y5	Z5	X6	Y6	Z6	X7	Y7	Z7	X8	Y8	Z8	X9	Y9	Z9	X10	Y10	Z10	X11	Y11	Z11	X12	Y12	Z12	X13	Y13	Z13	X14	Y14	Z14	X15	Y15	Z15	X16	Y16	Z16	X17	Y17	Z17	X18	Y18	Z18	X19	Y19	Z19	X20	Y20	Z20	X21	Y21	Z21	X22	Y22	Z22	X23	Y23	Z23	X24	Y24	Z24	X25	Y25	Z25	X26	Y26	Z26	X27	Y27	Z27	X28	Y28	Z28	X29	Y29	Z29	X30	Y30	Z30	X31	Y31	Z31	X32	Y32	Z32	X33	Y33	Z33	X34	Y34	Z34	X35	Y35	Z35	X36	Y36	Z36	X37	Y37	Z37

	30	0.37500	801.614	823.252	-309.145	796.320	805.618	-233.779	776.580	808.777	-384.587	973.766	461.762	-234.575	768.299	425.531	-371.054	882.432	104.017	-250.096	686.825	68.565	-351.558	879.464	877.460	-316.820	890.777	875.084	-200.893	868.151	879.836	-432.747	692.041	943.377	-262.282	684.040	941.627	-316.343	978.799	464.226	-176.847	777.825	423.307	-428.223	979.730	467.118	-292.841	780.892	441.428	-307.885	868.755	105.880	-212.553	675.599	69.030	-389.948	899.276	108.061	-281.582	695.301	78.785	-325.824	776.674	1378.591	-311.144	903.327	1320.310	-266.973	898.564	1314.977	-373.150	897.560	1314.363	-319.148	938.327	1245.461	-321.410	1054.308	660.800	-254.950	824.014	554.064	-518.633	978.150	675.350	-192.725	762.166	606.371	-465.934	1009.406	592.659	-196.222	768.369	521.078	-448.708	880.177	181.468	-137.587	803.478	173.631	-345.762	887.289	189.419	-181.355	763.209	180.693	-356.809	968.031	58.288	-219.667	790.841	41.613	-375.556
	31	0.38333	810.291	822.413	-309.189	804.926	804.824	-233.357	784.742	807.886	-384.108	983.715	461.475	-235.141	771.423	425.143	-370.724	911.638	98.884	-248.706	686.800	68.804	-351.375	887.895	876.518	-316.700	899.562	874.218	-200.678	876.228	878.819	-432.721	700.887	942.558	-261.773	692.715	940.862	-315.760	989.194	464.029	-177.457	781.045	422.810	-427.873	987.852	467.127	-295.195	783.271	441.166	-307.120	898.073	100.174	-211.098	675.665	69.362	-389.790	926.988	103.238	-280.899	696.646	78.815	-325.573	786.194	1377.617	-311.169	912.572	1319.203	-266.896	907.827	1314.190	-373.094	906.822	1313.402	-319.200	947.513	1244.482	-321.550	1062.800	660.698	-256.319	829.069	553.233	-517.933	986.753	674.937	-193.480	767.798	605.989	-465.813	1018.210	591.577	-197.799	772.769	520.404	-448.235	905.779	176.533	-136.535	804.474	172.822	-345.306	911.404	183.732	-181.089	764.120	180.628	-356.331	999.551	58.243	-218.703	790.911	41.562	-375.392
	32	0.39167	818.639	821.000	-309.150	813.614	803.902	-232.993	792.967	806.960	-383.682	993.222	460.776	-235.596	774.671	424.815	-370.340	940.737	94.333	-247.188	686.860	69.096	-351.142	896.387	875.512	-316.602	908.422	873.216	-200.501	884.353	877.808	-432.703	709.869	941.604	-261.182	701.477	939.981	-315.081	999.155	463.445	-177.962	784.287	422.359	-427.484	994.894	466.548	-296.804	785.878	440.077	-307.570	927.337	95.060	-209.507	675.742	69.767	-389.560	953.472	100.272	-280.168	697.349	78.736	-325.487	796.613	1376.378	-311.389	921.981	1318.368	-266.994	917.207	1313.400	-373.238	916.112	1312.329	-319.214	956.867	1243.651	-321.710	1071.145	659.930	-257.670	833.976	552.369	-517.301	995.188	673.810	-194.196	773.361	606.106	-465.839	1026.147	590.535	-198.971	777.273	519.490	-448.363	931.342	172.065	-135.413	805.540	172.007	-344.981	934.737	178.816	-179.543	765.230	180.244	-355.968	1030.804	58.762	-218.007	790.971	41.510	-375.190
	33	0.40000	826.949	819.400	-308.981	822.422	802.860	-232.682	801.290	805.988	-383.302	1002.375	459.696	-235.966	778.080	424.521	-369.900	969.608	90.445	-245.609	687.032	69.441	-350.831	904.968	874.452	-316.530	917.389	872.101	-200.360	892.547	876.802	-432.701	718.969	940.515	-260.509	710.316	938.987	-314.322	1008.761	462.494	-178.386	787.567	421.936	-427.060	1002.579	465.269	-297.465	789.162	439.203	-307.722	956.420	90.629	-207.846	675.851	70.245	-389.228	980.896	97.832	-278.677	696.857	78.774	-325.520	805.921	1375.242	-311.487	931.188	1317.278	-267.005	926.370	1312.362	-373.487	925.475	1311.162	-319.186	966.054	1242.589	-321.894	1079.337	658.485	-258.978	838.719	551.503	-516.759	1003.838	672.413	-195.115	778.512	606.006	-465.176	1034.474	589.561	-199.939	781.555	519.488	-448.160	956.754	168.161	-134.252	806.694	171.197	-344.789	958.973	174.837	-177.289	766.565	179.468	-355.567	1061.656	59.872	-217.546	791.020	41.460	-374.955
	34	0.40833	837.251	819.645	-309.291	831.378	801.702	-232.419	809.733	804.959	-382.963	1011.257	458.270	-236.281	781.682	424.232	-369.414	998.115	87.282	-244.024	687.340	69.834	-350.410	913.655	873.343	-316.489	926.483	870.892	-200.256	900.827	875.795	-432.723	728.159	939.287	-259.746	719.219	937.874	-313.497	1018.096	461.206	-178.761	790.910	421.517	-426.611	1011.759	462.802	-297.146	792.599	439.671	-306.569	985.178	86.950	-206.175	676.021	70.791	-388.763	1009.203	95.444	-276.901	696.226	79.199	-325.223	814.738	1374.150	-311.830	940.654	1315.832	-266.961	935.628	1310.831	-373.190	934.927	1309.916	-319.102	975.335	1241.059	-321.731	1087.378	656.357	-260.233	843.313	550.666	-516.322	1012.320	670.590	-196.082	783.971	605.499	-464.763	1043.513	587.907	-200.632	785.803	519.688	-447.454	981.882	164.893	-133.065	807.946	170.397	-344.704	983.851	171.647	-175.443	767.667	178.674	-355.536	1091.951	61.581	-217.261	791.062	41.416	-374.691
	35	0.41667	845.371	817.626	-309.388	840.502	800.430	-232.191	818.315	803.857	-382.653	1019.924	456.548	-236.567	785.504	423.913	-368.899	1026.103	84.876	-242.482	687.793	70.267	-349.850	922.459	872.189	-316.474	935.718	869.604	-200.188	909.200	874.775	-432.760	737.413	937.916	-258.895	728.174	936.638	-312.623	1027.220	459.623	-179.110	794.350	421.077	-426.151	1020.975	459.468	-296.465	797.739	440.078	-305.155	1013.448	84.062	-204.545	676.272	71.388	-388.138	1037.590	93.137	-275.296	696.096	79.849	-324.238	824.030	1373.151	-311.672	950.372	1314.386	-266.800	945.083	1309.161	-372.879	944.429	1308.618	-318.969	984.728	1239.399	-321.417	1095.281	653.559	-261.442	847.814	549.876	-515.988	1020.111	668.136	-197.003	789.049	605.326	-464.530	1052.089	585.480	-201.062	790.500	518.699	-446.447	1006.579	162.298	-131.855	809.306	169.614	-344.682	1008.617	168.873	-174.429	768.679	178.313	-355.185	1121.500	63.862	-217.077	791.095	41.376	-374.405
	36	0.42500	855.443	817.326	-309.757	849.827	799.046	-231.964	827.043	802.666	-382.332	1028.406	454.592	-236.827	789.559	423.534	-368.373	1053.396	83.215	-241.008	688.374	70.726	-349.135	931.393	870.990	-316.470	945.124	868.250	-200.141	917.661	873.729	-432.799	746.722	936.393	-257.971	737.180	935.265	-311.709	1036.172	457.809	-179.440	797.929	420.596	-425.691	1027.572	456.193	-296.244	803.578	439.973	-304.278	1041.049	81.956	-202.982	676.607	72.017	-387.343	1064.447	91.456	-274.101	696.659	80.271	-323.166	832.919	1372.177	-310.987	960.185	1312.998	-266.698	954.803	1307.810	-372.789	953.987	1307.276	-318.782	994.524	1238.047	-321.382	1103.076	650.139	-262.618	852.303	549.135	-515.745	1028.379	665.470	-197.776	793.947	605.179	-463.910	1060.013	582.365	-201.664	795.284	518.149	-445.593	1030.689	160.375	-130.618	810.771	168.853	-344.669	1032.240	166.503	-173.817	769.998	178.448	-354.317	1150.099	66.651	-216.925	791.124	41.336	-374.104
